<svg xmlns="http://www.w3.org/2000/svg" xmlns:xlink="http://www.w3.org/1999/xlink" width="500" zoomAndPan="magnify" viewBox="0 0 375 254.999984" height="340" preserveAspectRatio="xMidYMid meet" version="1.2"><defs><clipPath id="7e26e9251b"><path d="M 107 9 L 273 9 L 273 68 L 107 68 Z M 107 9 "/></clipPath><clipPath id="7f891e3e19"><path d="M 255.679688 -15.566406 L 275.328125 60.351562 L 120.117188 100.527344 L 100.464844 24.605469 Z M 255.679688 -15.566406 "/></clipPath><clipPath id="97f0630314"><path d="M 255.679688 -15.566406 L 275.328125 60.351562 L 120.117188 100.527344 L 100.464844 24.605469 Z M 255.679688 -15.566406 "/></clipPath><clipPath id="ec24df0c91"><path d="M 107 4 L 273 4 L 273 63 L 107 63 Z M 107 4 "/></clipPath><clipPath id="9dcde60720"><path d="M 255.679688 -20.25 L 275.328125 55.667969 L 120.117188 95.84375 L 100.464844 19.921875 Z M 255.679688 -20.25 "/></clipPath><clipPath id="144281c140"><path d="M 255.679688 -20.25 L 275.328125 55.667969 L 120.117188 95.84375 L 100.464844 19.921875 Z M 255.679688 -20.25 "/></clipPath></defs><g id="50ad53cf6c"><path style=" stroke:none;fill-rule:nonzero;fill:#e17100;fill-opacity:1;" d="M 124.535156 71 C 124.472656 77.40625 123.542969 83.078125 121.753906 88.015625 C 119.972656 92.953125 117.347656 97.210938 113.878906 100.78125 C 114.917969 104.824219 115.441406 109.039062 115.441406 113.421875 L 99.941406 113.421875 C 100.054688 110.476562 99.808594 107.492188 99.207031 104.46875 C 98.601562 101.4375 97.664062 98.640625 96.394531 96.078125 C 95.121094 93.507812 93.550781 91.429688 91.675781 89.84375 C 89.800781 88.25 87.621094 87.453125 85.144531 87.453125 C 82.664062 87.453125 80.660156 88.074219 79.128906 89.3125 C 77.597656 90.554688 76.832031 92.183594 76.832031 94.203125 C 76.832031 96.164062 77.597656 97.777344 79.128906 99.046875 C 80.660156 100.320312 82.664062 100.953125 85.144531 100.953125 C 88.371094 100.953125 91.632812 100 94.925781 98.09375 C 95.726562 99.835938 96.386719 101.84375 96.910156 104.125 C 97.429688 106.398438 97.777344 108.65625 97.957031 110.90625 C 93.050781 112.761719 88.632812 113.6875 84.707031 113.6875 C 80.613281 113.6875 76.945312 112.808594 73.707031 111.046875 C 70.476562 109.289062 67.941406 106.980469 66.097656 104.125 C 64.253906 101.261719 63.332031 98.15625 63.332031 94.8125 C 63.332031 92.273438 63.878906 89.820312 64.972656 87.453125 C 66.066406 85.089844 67.589844 82.953125 69.550781 81.046875 C 71.519531 79.140625 73.816406 77.625 76.441406 76.5 C 79.066406 75.375 81.910156 74.8125 84.972656 74.8125 C 89.585938 74.8125 93.710938 75.78125 97.347656 77.71875 C 100.980469 79.648438 104.097656 82.257812 106.691406 85.546875 C 107.503906 83.246094 107.878906 80.824219 107.816406 78.28125 C 107.761719 75.742188 107.761719 73.3125 107.816406 71 Z M 124.535156 71 "/><path style=" stroke:none;fill-rule:nonzero;fill:#e17100;fill-opacity:1;" d="M 116.738281 125.28125 C 116.738281 120.78125 117.660156 117.039062 119.503906 114.0625 C 121.347656 111.09375 123.859375 108.761719 127.035156 107.0625 C 130.210938 105.355469 133.863281 104.199219 137.988281 103.59375 C 142.113281 102.992188 146.496094 102.804688 151.144531 103.03125 C 155.789062 103.261719 160.445312 103.808594 165.113281 104.671875 C 165.238281 103.695312 165.324219 102.714844 165.378906 101.734375 C 165.441406 100.757812 165.496094 99.71875 165.550781 98.625 C 165.613281 95.625 165.253906 92.59375 164.472656 89.53125 C 163.691406 86.46875 162.574219 83.65625 161.128906 81.09375 C 159.691406 78.523438 157.976562 76.460938 155.988281 74.90625 C 153.996094 73.34375 151.820312 72.5625 149.457031 72.5625 C 146.738281 72.5625 144.523438 73.199219 142.816406 74.46875 C 141.117188 75.742188 140.269531 77.445312 140.269531 79.578125 C 140.269531 81.601562 141.117188 83.277344 142.816406 84.609375 C 144.523438 85.933594 146.738281 86.59375 149.457031 86.59375 C 151.121094 86.59375 152.851562 86.308594 154.644531 85.734375 C 156.433594 85.152344 158.195312 84.398438 159.925781 83.46875 C 160.789062 85.261719 161.507812 87.242188 162.082031 89.40625 C 162.664062 91.5625 163.042969 93.765625 163.222656 96.015625 C 160.910156 96.945312 158.480469 97.652344 155.941406 98.140625 C 153.398438 98.632812 151.089844 98.875 149.019531 98.875 C 144.570312 98.875 140.601562 97.984375 137.113281 96.203125 C 133.621094 94.414062 130.867188 92.058594 128.847656 89.140625 C 126.824219 86.226562 125.816406 83.039062 125.816406 79.578125 C 125.816406 76.109375 126.824219 72.90625 128.847656 69.96875 C 130.867188 67.023438 133.621094 64.65625 137.113281 62.875 C 140.601562 61.085938 144.570312 60.1875 149.019531 60.1875 C 153.632812 60.1875 157.839844 61.070312 161.644531 62.828125 C 165.457031 64.589844 168.691406 67.3125 171.347656 71 C 172.449219 68.8125 173.289062 66.4375 173.863281 63.875 C 174.433594 61.304688 174.722656 58.515625 174.722656 55.515625 L 193.160156 55.515625 C 193.160156 62.726562 191.832031 69.015625 189.175781 74.390625 C 186.527344 79.757812 182.867188 84.28125 178.191406 87.96875 C 178.710938 91.148438 178.972656 94.496094 178.972656 98.015625 C 178.972656 104.828125 178.277344 111.1875 176.894531 117.09375 C 175.507812 123.007812 173.371094 128.203125 170.488281 132.671875 C 167.601562 137.148438 163.910156 140.644531 159.410156 143.15625 C 154.910156 145.664062 149.539062 146.921875 143.300781 146.921875 C 137.820312 146.921875 133.089844 145.984375 129.113281 144.109375 C 125.136719 142.234375 122.078125 139.648438 119.941406 136.359375 C 117.808594 133.066406 116.738281 129.375 116.738281 125.28125 Z M 177.753906 123.984375 C 178.566406 121.671875 179.230469 119.285156 179.753906 116.828125 C 180.273438 114.378906 180.675781 111.835938 180.957031 109.1875 C 185.226562 110.6875 189.613281 112.664062 194.113281 115.109375 C 198.613281 117.554688 203.199219 120.484375 207.878906 123.890625 L 207.878906 147.609375 C 201.648438 141.953125 196.097656 137.207031 191.222656 133.375 C 186.347656 129.539062 181.855469 126.410156 177.753906 123.984375 Z M 131.707031 124.15625 C 131.707031 126.75 132.585938 128.894531 134.347656 130.59375 C 136.105469 132.300781 139.121094 133.15625 143.394531 133.15625 C 147.664062 133.15625 151.472656 131.664062 154.816406 128.6875 C 158.167969 125.71875 160.652344 121.925781 162.269531 117.3125 C 159.027344 116.445312 155.632812 115.84375 152.082031 115.5 C 148.539062 115.15625 145.222656 115.171875 142.128906 115.546875 C 139.042969 115.921875 136.535156 116.800781 134.597656 118.1875 C 132.667969 119.570312 131.707031 121.5625 131.707031 124.15625 Z M 131.707031 124.15625 "/><path style=" stroke:none;fill-rule:nonzero;fill:#e17100;fill-opacity:1;" d="M 224.402344 73.171875 C 228.277344 73.171875 231.324219 74.429688 233.542969 76.9375 C 235.761719 79.449219 237.1875 82.796875 237.824219 86.984375 C 238.457031 91.164062 238.285156 95.792969 237.308594 100.875 L 220.777344 100.875 C 221.410156 98.335938 221.753906 96.054688 221.808594 94.03125 C 221.871094 92.011719 221.550781 90.414062 220.855469 89.234375 C 220.167969 88.046875 218.957031 87.453125 217.230469 87.453125 C 214.800781 87.453125 212.675781 88.335938 210.855469 90.09375 C 209.042969 91.855469 207.640625 94.152344 206.652344 96.984375 C 205.671875 99.808594 205.269531 102.808594 205.449219 105.984375 C 206.019531 108.871094 206.800781 111.839844 207.792969 114.890625 L 194.980469 114.890625 C 192.324219 107.046875 190.621094 99.546875 189.871094 92.390625 C 189.121094 85.234375 189.40625 78.398438 190.730469 71.875 L 207.527344 71.875 C 206.777344 73.835938 206.15625 75.898438 205.667969 78.0625 C 205.175781 80.230469 204.785156 82.464844 204.496094 84.765625 C 206.339844 81.359375 208.875 78.53125 212.105469 76.28125 C 215.34375 74.03125 219.441406 72.996094 224.402344 73.171875 Z M 224.402344 73.171875 "/><path style=" stroke:none;fill-rule:nonzero;fill:#e17100;fill-opacity:1;" d="M 302.835938 71 C 302.773438 77.40625 301.84375 83.078125 300.054688 88.015625 C 298.273438 92.953125 295.648438 97.210938 292.179688 100.78125 C 293.21875 104.824219 293.742188 109.039062 293.742188 113.421875 L 278.242188 113.421875 C 278.355469 110.476562 278.109375 107.492188 277.507812 104.46875 C 276.902344 101.4375 275.964844 98.640625 274.695312 96.078125 C 273.421875 93.507812 271.851562 91.429688 269.976562 89.84375 C 268.101562 88.25 265.921875 87.453125 263.445312 87.453125 C 260.964844 87.453125 258.960938 88.074219 257.429688 89.3125 C 255.898438 90.554688 255.132812 92.183594 255.132812 94.203125 C 255.132812 96.164062 255.898438 97.777344 257.429688 99.046875 C 258.960938 100.320312 260.964844 100.953125 263.445312 100.953125 C 266.671875 100.953125 269.933594 100 273.226562 98.09375 C 274.027344 99.835938 274.6875 101.84375 275.210938 104.125 C 275.730469 106.398438 276.078125 108.65625 276.257812 110.90625 C 271.351562 112.761719 266.933594 113.6875 263.007812 113.6875 C 258.914062 113.6875 255.246094 112.808594 252.007812 111.046875 C 248.777344 109.289062 246.242188 106.980469 244.398438 104.125 C 242.554688 101.261719 241.632812 98.15625 241.632812 94.8125 C 241.632812 92.273438 242.179688 89.820312 243.273438 87.453125 C 244.367188 85.089844 245.890625 82.953125 247.851562 81.046875 C 249.820312 79.140625 252.117188 77.625 254.742188 76.5 C 257.367188 75.375 260.210938 74.8125 263.273438 74.8125 C 267.886719 74.8125 272.011719 75.78125 275.648438 77.71875 C 279.28125 79.648438 282.398438 82.257812 284.992188 85.546875 C 285.804688 83.246094 286.179688 80.824219 286.117188 78.28125 C 286.0625 75.742188 286.0625 73.3125 286.117188 71 Z M 302.835938 71 "/><path style=" stroke:none;fill-rule:nonzero;fill:#150d0a;fill-opacity:1;" d="M 113.40625 140.945312 C 106.894531 142.539062 102.285156 145.347656 99.578125 149.367188 C 96.867188 153.390625 95.257812 158.457031 94.75 164.570312 C 99.15625 164.570312 102.550781 164.570312 104.9375 164.570312 C 107.332031 164.570312 109.039062 164.570312 110.0625 164.570312 C 111.082031 164.570312 111.703125 164.59375 111.921875 164.632812 C 112.148438 164.664062 112.265625 164.679688 112.265625 164.679688 L 112.265625 178.351562 C 112.003906 178.414062 110.945312 178.484375 109.09375 178.554688 C 107.25 178.617188 105.035156 178.664062 102.453125 178.695312 C 99.867188 178.726562 97.300781 178.742188 94.75 178.742188 C 94.8125 179.566406 94.875 180.394531 94.9375 181.226562 C 95 182.050781 95.066406 182.910156 95.140625 183.804688 C 95.453125 187.316406 96.003906 191.207031 96.796875 195.476562 C 97.597656 199.75 98.601562 203.925781 99.8125 208.007812 C 101.03125 212.089844 102.34375 215.695312 103.75 218.820312 L 86.71875 218.820312 C 85.820312 216.652344 84.957031 214.089844 84.125 211.132812 C 83.300781 208.164062 82.566406 205.039062 81.921875 201.757812 C 81.285156 198.46875 80.742188 195.257812 80.296875 192.132812 C 79.859375 189.007812 79.539062 186.203125 79.34375 183.710938 C 78.644531 174.785156 78.675781 166.53125 79.4375 158.945312 C 80.207031 151.351562 81.882812 144.625 84.46875 138.757812 C 87.050781 132.882812 90.71875 128.097656 95.46875 124.398438 C 100.21875 120.703125 106.195312 118.3125 113.40625 117.226562 Z M 113.40625 140.945312 "/><path style=" stroke:none;fill-rule:nonzero;fill:#150d0a;fill-opacity:1;" d="M 182.945312 164.773438 C 182.882812 171.847656 181.859375 178.113281 179.882812 183.570312 C 177.914062 189.019531 175.011719 193.722656 171.179688 197.679688 C 172.335938 202.148438 172.914062 206.804688 172.914062 211.648438 L 155.773438 211.648438 C 155.90625 208.398438 155.636719 205.101562 154.960938 201.757812 C 154.292969 198.40625 153.257812 195.3125 151.851562 192.476562 C 150.453125 189.632812 148.71875 187.335938 146.648438 185.585938 C 144.574219 183.828125 142.164062 182.945312 139.414062 182.945312 C 136.671875 182.945312 134.460938 183.632812 132.773438 185.007812 C 131.085938 186.375 130.242188 188.175781 130.242188 190.414062 C 130.242188 192.582031 131.085938 194.367188 132.773438 195.773438 C 134.460938 197.171875 136.671875 197.867188 139.414062 197.867188 C 142.984375 197.867188 146.589844 196.816406 150.226562 194.710938 C 151.121094 196.628906 151.855469 198.847656 152.429688 201.367188 C 153 203.890625 153.386719 206.390625 153.585938 208.867188 C 148.15625 210.910156 143.277344 211.929688 138.945312 211.929688 C 134.414062 211.929688 130.359375 210.960938 126.789062 209.023438 C 123.214844 207.078125 120.40625 204.523438 118.367188 201.367188 C 116.324219 198.210938 115.304688 194.785156 115.304688 191.085938 C 115.304688 188.273438 115.90625 185.5625 117.117188 182.945312 C 118.335938 180.332031 120.027344 177.972656 122.195312 175.867188 C 124.359375 173.765625 126.898438 172.09375 129.804688 170.851562 C 132.710938 169.601562 135.851562 168.976562 139.226562 168.976562 C 144.328125 168.976562 148.890625 170.046875 152.914062 172.179688 C 156.933594 174.316406 160.375 177.203125 163.242188 180.835938 C 164.136719 178.285156 164.554688 175.609375 164.492188 172.804688 C 164.429688 170.003906 164.429688 167.328125 164.492188 164.773438 Z M 182.945312 164.773438 "/><path style=" stroke:none;fill-rule:nonzero;fill:#150d0a;fill-opacity:1;" d="M 221.683594 182.460938 C 221.878906 181.378906 221.980469 180.363281 221.980469 179.414062 C 221.980469 177.5625 221.386719 176.03125 220.199219 174.820312 C 219.019531 173.601562 217.1875 172.992188 214.699219 172.992188 C 211.957031 172.992188 209.660156 173.726562 207.808594 175.195312 C 205.964844 176.664062 204.578125 178.597656 203.652344 180.992188 C 202.722656 183.378906 202.261719 186.007812 202.261719 188.882812 C 202.261719 193.539062 203.296875 197.304688 205.371094 200.179688 C 207.441406 203.046875 210.152344 205.148438 213.496094 206.492188 C 216.847656 207.828125 220.410156 208.492188 224.183594 208.492188 C 226.152344 208.492188 228.171875 208.382812 230.246094 208.164062 C 232.316406 207.9375 234.375 207.535156 236.417969 206.960938 L 236.417969 223.414062 C 234.1875 223.796875 232.003906 224.117188 229.871094 224.367188 C 227.734375 224.625 225.644531 224.757812 223.605469 224.757812 C 218.113281 224.757812 213.105469 223.84375 208.574219 222.023438 C 204.050781 220.210938 200.160156 217.671875 196.902344 214.414062 C 193.652344 211.164062 191.144531 207.375 189.386719 203.039062 C 187.636719 198.707031 186.761719 193.988281 186.761719 188.882812 C 186.761719 183.207031 187.90625 178.039062 190.199219 173.382812 C 192.5 168.726562 195.722656 165.015625 199.871094 162.242188 C 204.015625 159.460938 208.894531 158.070312 214.511719 158.070312 C 219.613281 158.070312 224.015625 159.0625 227.714844 161.039062 C 231.410156 163.019531 234.136719 165.828125 235.886719 169.460938 C 237.644531 173.097656 238.109375 177.429688 237.277344 182.460938 Z M 221.683594 182.460938 "/><path style=" stroke:none;fill-rule:nonzero;fill:#150d0a;fill-opacity:1;" d="M 254.503906 161.132812 C 252.523438 161.132812 250.722656 160.640625 249.097656 159.648438 C 247.472656 158.660156 246.164062 157.335938 245.175781 155.679688 C 244.183594 154.023438 243.691406 152.207031 243.691406 150.226562 C 243.691406 148.1875 244.183594 146.351562 245.175781 144.726562 C 246.164062 143.101562 247.472656 141.796875 249.097656 140.804688 C 250.722656 139.816406 252.523438 139.320312 254.503906 139.320312 C 256.542969 139.320312 258.378906 139.816406 260.003906 140.804688 C 261.628906 141.796875 262.933594 143.101562 263.925781 144.726562 C 264.914062 146.351562 265.410156 148.1875 265.410156 150.226562 C 265.410156 152.207031 264.914062 154.023438 263.925781 155.679688 C 262.933594 157.335938 261.628906 158.660156 260.003906 159.648438 C 258.378906 160.640625 256.542969 161.132812 254.503906 161.132812 Z M 241.582031 205.710938 C 240.683594 199.847656 240.285156 193.9375 240.378906 187.976562 C 240.480469 182.007812 240.914062 175.421875 241.675781 168.210938 L 256.503906 168.210938 C 255.804688 175.546875 255.804688 182.257812 256.503906 188.351562 C 257.210938 194.445312 258.425781 200.234375 260.144531 205.710938 Z M 241.582031 205.710938 "/><path style=" stroke:none;fill-rule:nonzero;fill:#150d0a;fill-opacity:1;" d="M 321.078125 150.320312 C 321.078125 152.8125 320.597656 155.765625 319.640625 159.179688 C 318.679688 162.585938 317.226562 166.175781 315.28125 169.945312 C 313.34375 173.707031 310.828125 177.40625 307.734375 181.039062 C 304.640625 184.675781 300.988281 188.054688 296.78125 191.179688 C 292.570312 194.304688 287.738281 196.90625 282.28125 198.976562 C 276.832031 201.050781 270.726562 202.34375 263.96875 202.851562 L 263.96875 185.820312 C 268.175781 185.4375 271.9375 184.765625 275.25 183.804688 C 274.675781 181.390625 274.195312 178.632812 273.8125 175.539062 C 273.4375 172.445312 273.25 168.535156 273.25 163.804688 C 273.25 159.023438 273.835938 154.304688 275.015625 149.648438 C 276.191406 144.992188 277.910156 140.785156 280.171875 137.023438 C 282.441406 133.265625 285.171875 130.253906 288.359375 127.992188 C 291.546875 125.722656 295.148438 124.585938 299.171875 124.585938 C 304.148438 124.585938 308.265625 125.671875 311.515625 127.835938 C 314.765625 130.003906 317.171875 133.019531 318.734375 136.882812 C 320.296875 140.738281 321.078125 145.21875 321.078125 150.320312 Z M 289.796875 176.632812 C 293.429688 173.894531 296.347656 170.914062 298.546875 167.695312 C 300.742188 164.46875 302.335938 161.273438 303.328125 158.117188 C 304.316406 154.960938 304.8125 152.238281 304.8125 149.945312 C 304.8125 143.820312 302.929688 140.757812 299.171875 140.757812 C 297.390625 140.757812 295.859375 141.554688 294.578125 143.148438 C 293.304688 144.742188 292.253906 146.816406 291.421875 149.367188 C 290.585938 151.921875 289.976562 154.679688 289.59375 157.648438 C 289.21875 160.609375 289.03125 163.460938 289.03125 166.210938 C 289.03125 168.179688 289.09375 170.046875 289.21875 171.804688 C 289.34375 173.554688 289.535156 175.164062 289.796875 176.632812 Z M 294.859375 195.570312 C 297.609375 201.632812 301.257812 206.179688 305.8125 209.210938 C 310.375 212.242188 315.113281 214.105469 320.03125 214.804688 L 320.03125 235.757812 C 316.332031 235.308594 312.519531 234.242188 308.59375 232.554688 C 304.675781 230.867188 300.914062 228.585938 297.3125 225.710938 C 293.707031 222.84375 290.421875 219.417969 287.453125 215.429688 C 284.484375 211.441406 282.039062 206.925781 280.125 201.882812 C 282.550781 201.375 284.5 200.800781 285.96875 200.164062 C 287.4375 199.53125 288.820312 198.832031 290.125 198.070312 C 291.4375 197.300781 293.015625 196.46875 294.859375 195.570312 Z M 294.859375 195.570312 "/><path style=" stroke:none;fill-rule:nonzero;fill:#150d0a;fill-opacity:1;" d="M 343.179688 153.101562 C 348.53125 153.101562 352.898438 154.015625 356.273438 155.835938 C 359.65625 157.648438 362.164062 160.054688 363.789062 163.054688 C 365.414062 166.046875 366.226562 169.390625 366.226562 173.085938 C 366.226562 177.304688 365.234375 180.832031 363.257812 183.664062 C 361.289062 186.5 358.59375 188.765625 355.179688 190.460938 C 351.761719 192.148438 347.902344 193.378906 343.601562 194.148438 C 339.296875 194.910156 334.851562 195.289062 330.257812 195.289062 C 327.257812 195.289062 324.195312 195.164062 321.070312 194.914062 C 317.945312 194.65625 314.851562 194.300781 311.789062 193.851562 L 311.789062 177.492188 C 312.683594 177.753906 313.558594 177.992188 314.414062 178.210938 C 315.277344 178.429688 316.1875 178.640625 317.148438 178.835938 C 317.46875 173.859375 318.792969 169.441406 321.117188 165.585938 C 323.449219 161.722656 326.511719 158.675781 330.304688 156.445312 C 334.09375 154.21875 338.386719 153.101562 343.179688 153.101562 Z M 336.476562 181.507812 C 339.027344 181.507812 341.355469 181.253906 343.460938 180.742188 C 345.5625 180.234375 347.265625 179.390625 348.570312 178.210938 C 349.882812 177.035156 350.539062 175.457031 350.539062 173.476562 C 350.539062 171.5 349.710938 169.890625 348.054688 168.648438 C 346.398438 167.398438 344.480469 166.773438 342.304688 166.773438 C 340.136719 166.773438 338.242188 167.429688 336.617188 168.742188 C 334.992188 170.046875 333.746094 171.6875 332.882812 173.664062 C 332.027344 175.644531 331.601562 177.65625 331.601562 179.695312 C 331.601562 179.945312 331.601562 180.203125 331.601562 180.460938 C 331.601562 180.710938 331.632812 181 331.695312 181.320312 C 332.515625 181.382812 333.324219 181.429688 334.117188 181.460938 C 334.917969 181.492188 335.703125 181.507812 336.476562 181.507812 Z M 333.804688 197.398438 C 336.15625 200.835938 339.105469 203.675781 342.648438 205.914062 C 346.1875 208.144531 349.964844 209.515625 353.976562 210.023438 L 353.976562 228.679688 C 348.046875 228.042969 342.609375 226.210938 337.664062 223.179688 C 332.726562 220.148438 328.5625 216.320312 325.179688 211.695312 C 321.804688 207.070312 319.382812 202.050781 317.914062 196.632812 C 320.464844 196.945312 322.585938 197.1875 324.273438 197.351562 C 325.96875 197.507812 327.546875 197.585938 329.007812 197.585938 C 329.777344 197.585938 330.558594 197.570312 331.351562 197.539062 C 332.152344 197.507812 332.96875 197.460938 333.804688 197.398438 Z M 333.804688 197.398438 "/><path style=" stroke:none;fill-rule:nonzero;fill:#e17100;fill-opacity:1;" d="M 9.386719 112.199219 L 29.746094 112.199219 C 29.589844 113.285156 29.453125 114.324219 29.339844 115.324219 C 29.222656 116.324219 29.167969 117.324219 29.167969 118.324219 C 29.167969 122.875 30.089844 126.015625 31.933594 127.746094 C 33.785156 129.484375 35.796875 130.355469 37.964844 130.355469 C 39.964844 130.355469 41.753906 129.660156 43.339844 128.277344 C 44.921875 126.890625 45.714844 124.191406 45.714844 120.183594 C 45.714844 117.714844 45.363281 115.304688 44.667969 112.949219 C 43.96875 110.597656 42.828125 107.800781 41.246094 104.558594 C 39.671875 101.320312 37.457031 97.195312 34.605469 92.183594 C 32.519531 88.488281 30.652344 84.710938 28.996094 80.855469 C 27.339844 76.992188 26.003906 73.308594 24.996094 69.808594 C 23.996094 66.300781 23.496094 63.308594 23.496094 60.839844 C 23.496094 55.050781 24.808594 50.269531 27.433594 46.496094 C 30.058594 42.714844 33.433594 39.898438 37.558594 38.042969 C 41.683594 36.191406 45.941406 35.261719 50.339844 35.261719 C 55.578125 35.261719 60.296875 36.425781 64.496094 38.746094 C 68.703125 41.058594 72.019531 44.472656 74.449219 48.980469 C 76.886719 53.492188 78.105469 59.066406 78.105469 65.699219 C 78.105469 67.386719 77.988281 69.160156 77.761719 71.011719 L 57.402344 70.902344 C 57.859375 68.351562 58.089844 66.113281 58.089844 64.183594 C 58.089844 60.558594 57.453125 57.941406 56.183594 56.324219 C 54.910156 54.699219 53.386719 53.886719 51.605469 53.886719 C 50.144531 53.886719 48.625 54.542969 47.042969 55.855469 C 45.457031 57.167969 44.667969 59.636719 44.667969 63.261719 C 44.667969 65.660156 45.128906 68.574219 46.058594 72.011719 C 46.984375 75.441406 48.5625 79.160156 50.792969 83.167969 C 55.113281 90.878906 58.566406 97.820312 61.152344 103.996094 C 63.734375 110.164062 65.027344 115.980469 65.027344 121.449219 C 65.027344 127.15625 63.65625 132.015625 60.917969 136.027344 C 58.175781 140.035156 54.6875 143.0625 50.449219 145.105469 C 46.207031 147.15625 41.8125 148.183594 37.261719 148.183594 C 32.636719 148.183594 28.160156 147.0625 23.839844 144.824219 C 19.527344 142.582031 15.988281 139.222656 13.214844 134.746094 C 10.433594 130.277344 9.042969 124.652344 9.042969 117.871094 C 9.042969 116.019531 9.160156 114.128906 9.386719 112.199219 Z M 9.386719 112.199219 "/><g clip-rule="nonzero" clip-path="url(#7e26e9251b)"><g clip-rule="nonzero" clip-path="url(#7f891e3e19)"><g clip-rule="nonzero" clip-path="url(#97f0630314)"><path style=" stroke:none;fill-rule:nonzero;fill:#f8af41;fill-opacity:1;" d="M 247.792969 65.914062 C 248.066406 65.84375 248.292969 65.703125 248.480469 65.492188 C 248.667969 65.28125 248.78125 65.035156 248.816406 64.757812 C 248.855469 64.480469 248.8125 64.214844 248.6875 63.960938 C 248.566406 63.707031 248.382812 63.511719 248.140625 63.367188 C 243.058594 60.375 237.496094 58.152344 232.460938 54.960938 C 228.457031 52.417969 220.71875 47.210938 224.597656 41.714844 C 228.203125 36.617188 236.621094 43.785156 239.773438 46.085938 C 242.691406 48.203125 245.550781 50.480469 248.59375 52.421875 C 250.925781 54.109375 253.523438 55.113281 256.382812 55.433594 C 256.644531 55.441406 256.90625 55.433594 257.167969 55.402344 C 257.429688 55.421875 257.679688 55.371094 257.914062 55.25 C 258.152344 55.125 258.335938 54.949219 258.46875 54.722656 C 258.605469 54.492188 258.667969 54.246094 258.664062 53.980469 C 258.65625 53.714844 258.578125 53.472656 258.433594 53.25 C 257.394531 51.617188 256.128906 50.179688 254.632812 48.949219 C 252.441406 46.859375 250.15625 44.851562 247.914062 42.800781 C 245.496094 40.554688 243.101562 38.304688 240.882812 35.832031 C 239.003906 33.992188 237.53125 31.871094 236.464844 29.464844 C 236.371094 29.292969 236.296875 29.113281 236.246094 28.921875 C 236.191406 28.734375 236.160156 28.542969 236.152344 28.347656 C 236.144531 28.148438 236.15625 27.957031 236.1875 27.761719 C 236.222656 27.570312 236.277344 27.382812 236.355469 27.203125 C 236.429688 27.023438 236.523438 26.851562 236.636719 26.691406 C 236.753906 26.53125 236.882812 26.386719 237.027344 26.257812 C 237.175781 26.125 237.332031 26.015625 237.503906 25.917969 C 237.675781 25.824219 237.855469 25.75 238.042969 25.695312 C 240.796875 24.453125 243.984375 25.234375 246.515625 26.574219 C 252.96875 29.976562 257.578125 36.683594 261.984375 42.21875 C 264.394531 45.574219 267.210938 48.546875 270.425781 51.136719 C 270.660156 51.257812 270.914062 51.304688 271.175781 51.28125 C 271.441406 51.257812 271.679688 51.167969 271.894531 51.007812 C 272.105469 50.847656 272.257812 50.644531 272.351562 50.394531 C 272.449219 50.144531 272.46875 49.890625 272.417969 49.628906 C 271.464844 46.238281 270.21875 42.957031 268.683594 39.785156 C 267.144531 36.617188 265.339844 33.605469 263.265625 30.757812 C 261.195312 27.90625 258.886719 25.261719 256.347656 22.820312 C 253.804688 20.382812 251.066406 18.1875 248.132812 16.234375 C 242.355469 12.441406 235.507812 9.90625 228.546875 10.757812 C 222.746094 11.621094 217.242188 13.40625 212.039062 16.109375 C 208.574219 14.453125 204.964844 13.242188 201.203125 12.480469 C 195.890625 11.191406 190.503906 10.347656 185.050781 9.953125 C 173.496094 9.152344 161.613281 9.183594 150.296875 11.851562 C 144.546875 13.25 138.992188 15.210938 133.640625 17.738281 C 128.285156 20.261719 123.238281 23.300781 118.5 26.847656 C 111.554688 32.019531 105.441406 40.984375 108.859375 49.910156 C 110.019531 52.957031 112.15625 55.820312 115.472656 56.542969 C 118.515625 57.191406 121.476562 55.9375 124.0625 54.605469 C 126.847656 53.03125 129.542969 51.316406 132.15625 49.46875 C 136.691406 46.507812 141.390625 43.828125 146.246094 41.425781 C 156.171875 36.445312 166.667969 33.472656 177.730469 32.5 C 182.675781 32.125 187.695312 32.148438 192.679688 32.152344 C 196.566406 32.09375 200.398438 32.539062 204.167969 33.484375 C 201.945312 43.265625 209.3125 52.519531 216.777344 58.230469 C 224.878906 64.449219 237.632812 70.050781 247.792969 65.914062 Z M 247.792969 65.914062 "/></g></g></g><g clip-rule="nonzero" clip-path="url(#ec24df0c91)"><g clip-rule="nonzero" clip-path="url(#9dcde60720)"><g clip-rule="nonzero" clip-path="url(#144281c140)"><path style=" stroke:none;fill-rule:nonzero;fill:#e8d6b9;fill-opacity:1;" d="M 247.792969 61.230469 C 248.066406 61.160156 248.292969 61.019531 248.480469 60.808594 C 248.667969 60.597656 248.78125 60.351562 248.816406 60.074219 C 248.855469 59.792969 248.8125 59.527344 248.6875 59.277344 C 248.566406 59.023438 248.382812 58.828125 248.140625 58.683594 C 243.058594 55.691406 237.496094 53.46875 232.460938 50.277344 C 228.457031 47.734375 220.71875 42.527344 224.597656 37.03125 C 228.203125 31.929688 236.621094 39.101562 239.773438 41.402344 C 242.691406 43.519531 245.550781 45.796875 248.59375 47.738281 C 250.925781 49.425781 253.523438 50.429688 256.382812 50.75 C 256.644531 50.757812 256.90625 50.75 257.167969 50.71875 C 257.429688 50.738281 257.679688 50.6875 257.914062 50.566406 C 258.152344 50.441406 258.335938 50.265625 258.46875 50.039062 C 258.605469 49.808594 258.667969 49.5625 258.664062 49.296875 C 258.65625 49.03125 258.578125 48.789062 258.433594 48.566406 C 257.394531 46.933594 256.128906 45.496094 254.632812 44.265625 C 252.441406 42.175781 250.15625 40.167969 247.914062 38.117188 C 245.496094 35.871094 243.101562 33.617188 240.882812 31.148438 C 239.003906 29.308594 237.53125 27.183594 236.464844 24.78125 C 236.371094 24.609375 236.296875 24.429688 236.246094 24.238281 C 236.191406 24.050781 236.160156 23.859375 236.152344 23.664062 C 236.144531 23.464844 236.15625 23.273438 236.1875 23.078125 C 236.222656 22.886719 236.277344 22.699219 236.355469 22.519531 C 236.429688 22.335938 236.523438 22.167969 236.636719 22.007812 C 236.753906 21.847656 236.882812 21.703125 237.027344 21.574219 C 237.175781 21.441406 237.332031 21.332031 237.503906 21.234375 C 237.675781 21.140625 237.855469 21.066406 238.042969 21.011719 C 240.796875 19.765625 243.984375 20.550781 246.515625 21.890625 C 252.96875 25.292969 257.578125 32 261.984375 37.535156 C 264.394531 40.890625 267.210938 43.859375 270.425781 46.453125 C 270.660156 46.574219 270.914062 46.621094 271.175781 46.597656 C 271.441406 46.574219 271.679688 46.484375 271.894531 46.324219 C 272.105469 46.164062 272.257812 45.957031 272.351562 45.710938 C 272.449219 45.460938 272.46875 45.207031 272.417969 44.945312 C 271.464844 41.554688 270.21875 38.273438 268.683594 35.101562 C 267.144531 31.933594 265.339844 28.921875 263.265625 26.074219 C 261.195312 23.222656 258.886719 20.578125 256.347656 18.136719 C 253.804688 15.699219 251.066406 13.503906 248.132812 11.546875 C 242.355469 7.757812 235.507812 5.222656 228.546875 6.074219 C 222.746094 6.9375 217.242188 8.722656 212.039062 11.425781 C 208.574219 9.769531 204.964844 8.558594 201.203125 7.796875 C 195.890625 6.507812 190.503906 5.664062 185.050781 5.269531 C 173.496094 4.46875 161.613281 4.5 150.296875 7.167969 C 144.546875 8.566406 138.992188 10.527344 133.640625 13.054688 C 128.285156 15.578125 123.238281 18.613281 118.5 22.164062 C 111.554688 27.335938 105.441406 36.300781 108.859375 45.226562 C 110.019531 48.273438 112.15625 51.136719 115.472656 51.859375 C 118.515625 52.507812 121.476562 51.253906 124.0625 49.921875 C 126.847656 48.34375 129.542969 46.632812 132.15625 44.785156 C 136.691406 41.824219 141.390625 39.144531 146.246094 36.742188 C 156.171875 31.761719 166.667969 28.789062 177.730469 27.816406 C 182.675781 27.441406 187.695312 27.464844 192.679688 27.46875 C 196.566406 27.410156 200.398438 27.855469 204.167969 28.800781 C 201.945312 38.582031 209.3125 47.835938 216.777344 53.546875 C 224.878906 59.765625 237.632812 65.367188 247.792969 61.230469 Z M 247.792969 61.230469 "/></g></g></g><path style=" stroke:none;fill-rule:nonzero;fill:#000000;fill-opacity:1;" d="M 6.355469 249.953125 C 6.5625 249.953125 6.734375 250.023438 6.871094 250.15625 C 7.003906 250.28125 7.074219 250.449219 7.074219 250.65625 C 7.074219 250.855469 7.003906 251.023438 6.871094 251.15625 C 6.734375 251.28125 6.5625 251.34375 6.355469 251.34375 L 2.511719 251.34375 C 2.300781 251.34375 2.128906 251.277344 1.996094 251.140625 C 1.859375 251.007812 1.792969 250.835938 1.792969 250.625 L 1.792969 243.78125 C 1.792969 243.585938 1.859375 243.417969 1.996094 243.28125 C 2.140625 243.136719 2.324219 243.0625 2.542969 243.0625 C 2.730469 243.0625 2.894531 243.136719 3.042969 243.28125 C 3.1875 243.417969 3.261719 243.585938 3.261719 243.78125 L 3.261719 250.15625 L 3.011719 249.953125 Z M 6.355469 249.953125 "/><path style=" stroke:none;fill-rule:nonzero;fill:#000000;fill-opacity:1;" d="M 14.332031 244.921875 L 11.785156 250.9375 C 11.730469 251.085938 11.648438 251.199219 11.535156 251.28125 C 11.417969 251.363281 11.292969 251.40625 11.160156 251.40625 C 10.941406 251.40625 10.777344 251.347656 10.675781 251.234375 C 10.582031 251.109375 10.535156 250.960938 10.535156 250.78125 C 10.535156 250.71875 10.542969 250.648438 10.566406 250.5625 L 13.503906 243.484375 C 13.566406 243.328125 13.660156 243.210938 13.785156 243.125 C 13.917969 243.042969 14.066406 243.007812 14.222656 243.015625 C 14.355469 243.015625 14.488281 243.058594 14.613281 243.140625 C 14.738281 243.226562 14.824219 243.339844 14.878906 243.484375 L 17.785156 250.421875 C 17.824219 250.527344 17.847656 250.621094 17.847656 250.703125 C 17.847656 250.921875 17.777344 251.09375 17.644531 251.21875 C 17.507812 251.34375 17.355469 251.40625 17.191406 251.40625 C 17.042969 251.40625 16.914062 251.363281 16.800781 251.28125 C 16.683594 251.1875 16.597656 251.070312 16.535156 250.921875 L 13.988281 244.984375 Z M 12.144531 249.484375 L 12.800781 248.125 L 15.988281 248.125 L 16.222656 249.484375 Z M 12.144531 249.484375 "/><path style=" stroke:none;fill-rule:nonzero;fill:#000000;fill-opacity:1;" d="M 30.546875 251.46875 C 29.992188 251.46875 29.492188 251.398438 29.046875 251.265625 C 28.609375 251.121094 28.191406 250.875 27.796875 250.53125 C 27.691406 250.4375 27.609375 250.339844 27.546875 250.234375 C 27.492188 250.121094 27.46875 250.011719 27.46875 249.90625 C 27.46875 249.71875 27.53125 249.558594 27.65625 249.421875 C 27.789062 249.289062 27.957031 249.21875 28.15625 249.21875 C 28.3125 249.21875 28.445312 249.265625 28.5625 249.359375 C 28.863281 249.601562 29.160156 249.789062 29.453125 249.921875 C 29.742188 250.046875 30.109375 250.109375 30.546875 250.109375 C 30.835938 250.109375 31.101562 250.0625 31.34375 249.96875 C 31.59375 249.875 31.789062 249.757812 31.9375 249.609375 C 32.09375 249.453125 32.171875 249.277344 32.171875 249.078125 C 32.171875 248.839844 32.097656 248.636719 31.953125 248.46875 C 31.816406 248.304688 31.601562 248.164062 31.3125 248.046875 C 31.019531 247.933594 30.644531 247.84375 30.1875 247.78125 C 29.769531 247.71875 29.394531 247.625 29.0625 247.5 C 28.738281 247.367188 28.46875 247.199219 28.25 247 C 28.039062 246.792969 27.878906 246.554688 27.765625 246.28125 C 27.660156 246.011719 27.609375 245.710938 27.609375 245.375 C 27.609375 244.867188 27.738281 244.429688 28 244.0625 C 28.257812 243.699219 28.613281 243.421875 29.0625 243.234375 C 29.519531 243.046875 30.019531 242.953125 30.5625 242.953125 C 31.070312 242.953125 31.546875 243.03125 31.984375 243.1875 C 32.421875 243.335938 32.78125 243.527344 33.0625 243.765625 C 33.289062 243.945312 33.40625 244.152344 33.40625 244.390625 C 33.40625 244.570312 33.335938 244.730469 33.203125 244.875 C 33.066406 245.011719 32.90625 245.078125 32.71875 245.078125 C 32.601562 245.078125 32.5 245.042969 32.40625 244.96875 C 32.28125 244.855469 32.109375 244.75 31.890625 244.65625 C 31.679688 244.554688 31.457031 244.46875 31.21875 244.40625 C 30.988281 244.34375 30.769531 244.3125 30.5625 244.3125 C 30.21875 244.3125 29.929688 244.355469 29.703125 244.4375 C 29.472656 244.523438 29.296875 244.640625 29.171875 244.796875 C 29.054688 244.945312 29 245.117188 29 245.3125 C 29 245.554688 29.066406 245.75 29.203125 245.90625 C 29.335938 246.054688 29.535156 246.171875 29.796875 246.265625 C 30.054688 246.359375 30.367188 246.4375 30.734375 246.5 C 31.210938 246.59375 31.628906 246.699219 31.984375 246.8125 C 32.347656 246.929688 32.644531 247.078125 32.875 247.265625 C 33.113281 247.453125 33.289062 247.6875 33.40625 247.96875 C 33.53125 248.25 33.59375 248.589844 33.59375 248.984375 C 33.59375 249.507812 33.445312 249.953125 33.15625 250.328125 C 32.875 250.695312 32.503906 250.976562 32.046875 251.171875 C 31.585938 251.367188 31.085938 251.46875 30.546875 251.46875 Z M 30.546875 251.46875 "/><path style=" stroke:none;fill-rule:nonzero;fill:#000000;fill-opacity:1;" d="M 45.417969 247.203125 C 45.417969 247.796875 45.316406 248.351562 45.121094 248.859375 C 44.921875 249.371094 44.644531 249.824219 44.292969 250.21875 C 43.9375 250.605469 43.511719 250.914062 43.011719 251.140625 C 42.519531 251.359375 41.984375 251.46875 41.402344 251.46875 C 40.816406 251.46875 40.28125 251.359375 39.792969 251.140625 C 39.300781 250.914062 38.875 250.605469 38.511719 250.21875 C 38.15625 249.824219 37.878906 249.371094 37.683594 248.859375 C 37.484375 248.351562 37.386719 247.796875 37.386719 247.203125 C 37.386719 246.609375 37.484375 246.058594 37.683594 245.546875 C 37.878906 245.039062 38.15625 244.589844 38.511719 244.203125 C 38.875 243.808594 39.300781 243.5 39.792969 243.28125 C 40.28125 243.0625 40.816406 242.953125 41.402344 242.953125 C 41.984375 242.953125 42.519531 243.0625 43.011719 243.28125 C 43.511719 243.5 43.9375 243.808594 44.292969 244.203125 C 44.644531 244.589844 44.921875 245.039062 45.121094 245.546875 C 45.316406 246.058594 45.417969 246.609375 45.417969 247.203125 Z M 43.886719 247.203125 C 43.886719 246.671875 43.777344 246.195312 43.558594 245.765625 C 43.347656 245.339844 43.058594 245 42.683594 244.75 C 42.316406 244.492188 41.890625 244.359375 41.402344 244.359375 C 40.910156 244.359375 40.480469 244.492188 40.105469 244.75 C 39.738281 245 39.453125 245.339844 39.246094 245.765625 C 39.035156 246.195312 38.933594 246.671875 38.933594 247.203125 C 38.933594 247.734375 39.035156 248.214844 39.246094 248.640625 C 39.453125 249.070312 39.738281 249.414062 40.105469 249.671875 C 40.480469 249.921875 40.910156 250.046875 41.402344 250.046875 C 41.890625 250.046875 42.316406 249.921875 42.683594 249.671875 C 43.058594 249.414062 43.347656 249.070312 43.558594 248.640625 C 43.777344 248.214844 43.886719 247.734375 43.886719 247.203125 Z M 43.886719 247.203125 "/><path style=" stroke:none;fill-rule:nonzero;fill:#000000;fill-opacity:1;" d="M 54.207031 249.953125 C 54.414062 249.953125 54.585938 250.023438 54.722656 250.15625 C 54.855469 250.28125 54.925781 250.449219 54.925781 250.65625 C 54.925781 250.855469 54.855469 251.023438 54.722656 251.15625 C 54.585938 251.28125 54.414062 251.34375 54.207031 251.34375 L 50.363281 251.34375 C 50.152344 251.34375 49.980469 251.277344 49.847656 251.140625 C 49.710938 251.007812 49.644531 250.835938 49.644531 250.625 L 49.644531 243.78125 C 49.644531 243.585938 49.710938 243.417969 49.847656 243.28125 C 49.992188 243.136719 50.175781 243.0625 50.394531 243.0625 C 50.582031 243.0625 50.746094 243.136719 50.894531 243.28125 C 51.039062 243.417969 51.113281 243.585938 51.113281 243.78125 L 51.113281 250.15625 L 50.863281 249.953125 Z M 54.207031 249.953125 "/><path style=" stroke:none;fill-rule:nonzero;fill:#000000;fill-opacity:1;" d="M 65.027344 243.046875 C 65.234375 243.046875 65.402344 243.121094 65.527344 243.265625 C 65.652344 243.402344 65.714844 243.574219 65.714844 243.78125 L 65.714844 248.0625 C 65.714844 248.710938 65.574219 249.289062 65.292969 249.796875 C 65.011719 250.296875 64.625 250.695312 64.136719 250.984375 C 63.644531 251.265625 63.078125 251.40625 62.433594 251.40625 C 61.785156 251.40625 61.21875 251.265625 60.730469 250.984375 C 60.238281 250.695312 59.855469 250.296875 59.574219 249.796875 C 59.292969 249.289062 59.152344 248.710938 59.152344 248.0625 L 59.152344 243.78125 C 59.152344 243.574219 59.21875 243.402344 59.355469 243.265625 C 59.5 243.121094 59.683594 243.046875 59.902344 243.046875 C 60.089844 243.046875 60.253906 243.121094 60.402344 243.265625 C 60.546875 243.402344 60.621094 243.574219 60.621094 243.78125 L 60.621094 248.0625 C 60.621094 248.449219 60.703125 248.789062 60.871094 249.078125 C 61.035156 249.371094 61.261719 249.59375 61.542969 249.75 C 61.824219 249.90625 62.121094 249.984375 62.433594 249.984375 C 62.777344 249.984375 63.09375 249.90625 63.386719 249.75 C 63.675781 249.59375 63.910156 249.371094 64.089844 249.078125 C 64.277344 248.789062 64.371094 248.449219 64.371094 248.0625 L 64.371094 243.78125 C 64.371094 243.574219 64.425781 243.402344 64.542969 243.265625 C 64.65625 243.121094 64.816406 243.046875 65.027344 243.046875 Z M 65.027344 243.046875 "/><path style=" stroke:none;fill-rule:nonzero;fill:#000000;fill-opacity:1;" d="M 75.941406 243.0625 C 76.105469 243.0625 76.273438 243.125 76.441406 243.25 C 76.617188 243.375 76.707031 243.546875 76.707031 243.765625 C 76.707031 243.914062 76.648438 244.0625 76.535156 244.21875 L 72.019531 250.03125 L 71.863281 249.984375 L 75.816406 249.984375 C 76.023438 249.984375 76.195312 250.046875 76.332031 250.171875 C 76.464844 250.289062 76.535156 250.449219 76.535156 250.65625 C 76.535156 250.855469 76.464844 251.023438 76.332031 251.15625 C 76.195312 251.28125 76.023438 251.34375 75.816406 251.34375 L 70.628906 251.34375 C 70.417969 251.34375 70.238281 251.273438 70.082031 251.125 C 69.933594 250.980469 69.863281 250.820312 69.863281 250.640625 C 69.863281 250.496094 69.917969 250.351562 70.035156 250.203125 L 74.582031 244.359375 L 74.691406 244.421875 L 71.097656 244.421875 C 70.898438 244.421875 70.726562 244.359375 70.582031 244.234375 C 70.445312 244.109375 70.378906 243.945312 70.378906 243.734375 C 70.378906 243.539062 70.445312 243.375 70.582031 243.25 C 70.726562 243.125 70.898438 243.0625 71.097656 243.0625 Z M 75.941406 243.0625 "/><path style=" stroke:none;fill-rule:nonzero;fill:#000000;fill-opacity:1;" d="M 82.339844 250.625 C 82.339844 250.835938 82.265625 251.007812 82.121094 251.140625 C 81.972656 251.277344 81.800781 251.34375 81.605469 251.34375 C 81.386719 251.34375 81.207031 251.277344 81.074219 251.140625 C 80.9375 251.007812 80.871094 250.835938 80.871094 250.625 L 80.871094 243.78125 C 80.871094 243.585938 80.9375 243.417969 81.074219 243.28125 C 81.21875 243.136719 81.402344 243.0625 81.621094 243.0625 C 81.808594 243.0625 81.972656 243.136719 82.121094 243.28125 C 82.265625 243.417969 82.339844 243.585938 82.339844 243.78125 Z M 82.339844 250.625 "/><path style=" stroke:none;fill-rule:nonzero;fill:#000000;fill-opacity:1;" d="M 94.59375 247.203125 C 94.59375 247.796875 94.492188 248.351562 94.296875 248.859375 C 94.097656 249.371094 93.820312 249.824219 93.46875 250.21875 C 93.113281 250.605469 92.6875 250.914062 92.1875 251.140625 C 91.695312 251.359375 91.160156 251.46875 90.578125 251.46875 C 89.992188 251.46875 89.457031 251.359375 88.96875 251.140625 C 88.476562 250.914062 88.050781 250.605469 87.6875 250.21875 C 87.332031 249.824219 87.054688 249.371094 86.859375 248.859375 C 86.660156 248.351562 86.5625 247.796875 86.5625 247.203125 C 86.5625 246.609375 86.660156 246.058594 86.859375 245.546875 C 87.054688 245.039062 87.332031 244.589844 87.6875 244.203125 C 88.050781 243.808594 88.476562 243.5 88.96875 243.28125 C 89.457031 243.0625 89.992188 242.953125 90.578125 242.953125 C 91.160156 242.953125 91.695312 243.0625 92.1875 243.28125 C 92.6875 243.5 93.113281 243.808594 93.46875 244.203125 C 93.820312 244.589844 94.097656 245.039062 94.296875 245.546875 C 94.492188 246.058594 94.59375 246.609375 94.59375 247.203125 Z M 93.0625 247.203125 C 93.0625 246.671875 92.953125 246.195312 92.734375 245.765625 C 92.523438 245.339844 92.234375 245 91.859375 244.75 C 91.492188 244.492188 91.066406 244.359375 90.578125 244.359375 C 90.085938 244.359375 89.65625 244.492188 89.28125 244.75 C 88.914062 245 88.628906 245.339844 88.421875 245.765625 C 88.210938 246.195312 88.109375 246.671875 88.109375 247.203125 C 88.109375 247.734375 88.210938 248.214844 88.421875 248.640625 C 88.628906 249.070312 88.914062 249.414062 89.28125 249.671875 C 89.65625 249.921875 90.085938 250.046875 90.578125 250.046875 C 91.066406 250.046875 91.492188 249.921875 91.859375 249.671875 C 92.234375 249.414062 92.523438 249.070312 92.734375 248.640625 C 92.953125 248.214844 93.0625 247.734375 93.0625 247.203125 Z M 93.0625 247.203125 "/><path style=" stroke:none;fill-rule:nonzero;fill:#000000;fill-opacity:1;" d="M 105.097656 243.0625 C 105.285156 243.0625 105.433594 243.125 105.550781 243.25 C 105.675781 243.375 105.738281 243.53125 105.738281 243.71875 L 105.738281 250.625 C 105.738281 250.835938 105.664062 251.007812 105.519531 251.140625 C 105.382812 251.277344 105.210938 251.34375 105.003906 251.34375 C 104.910156 251.34375 104.804688 251.328125 104.691406 251.296875 C 104.585938 251.257812 104.507812 251.203125 104.457031 251.140625 L 99.800781 245.234375 L 100.113281 245.046875 L 100.113281 250.6875 C 100.113281 250.875 100.050781 251.03125 99.925781 251.15625 C 99.808594 251.28125 99.652344 251.34375 99.457031 251.34375 C 99.257812 251.34375 99.101562 251.28125 98.988281 251.15625 C 98.871094 251.03125 98.816406 250.875 98.816406 250.6875 L 98.816406 243.78125 C 98.816406 243.585938 98.882812 243.417969 99.019531 243.28125 C 99.152344 243.136719 99.324219 243.0625 99.535156 243.0625 C 99.648438 243.0625 99.761719 243.085938 99.878906 243.125 C 99.992188 243.167969 100.082031 243.234375 100.144531 243.328125 L 104.644531 249.078125 L 104.441406 249.21875 L 104.441406 243.71875 C 104.441406 243.53125 104.496094 243.375 104.613281 243.25 C 104.738281 243.125 104.898438 243.0625 105.097656 243.0625 Z M 105.097656 243.0625 "/><path style=" stroke:none;fill-rule:nonzero;fill:#000000;fill-opacity:1;" d="M 111.085938 243.0625 L 115.054688 243.0625 C 115.25 243.0625 115.417969 243.132812 115.554688 243.265625 C 115.699219 243.390625 115.773438 243.558594 115.773438 243.765625 C 115.773438 243.964844 115.699219 244.125 115.554688 244.25 C 115.417969 244.367188 115.25 244.421875 115.054688 244.421875 L 111.742188 244.421875 L 111.835938 244.21875 L 111.835938 246.53125 L 111.742188 246.4375 L 114.507812 246.4375 C 114.714844 246.4375 114.886719 246.507812 115.023438 246.640625 C 115.167969 246.765625 115.242188 246.933594 115.242188 247.140625 C 115.242188 247.328125 115.167969 247.484375 115.023438 247.609375 C 114.886719 247.734375 114.714844 247.796875 114.507812 247.796875 L 111.789062 247.796875 L 111.835938 247.703125 L 111.835938 250.09375 L 111.742188 249.984375 L 115.054688 249.984375 C 115.25 249.984375 115.417969 250.054688 115.554688 250.1875 C 115.699219 250.324219 115.773438 250.484375 115.773438 250.671875 C 115.773438 250.871094 115.699219 251.03125 115.554688 251.15625 C 115.417969 251.28125 115.25 251.34375 115.054688 251.34375 L 111.085938 251.34375 C 110.875 251.34375 110.703125 251.277344 110.570312 251.140625 C 110.433594 251.007812 110.367188 250.835938 110.367188 250.625 L 110.367188 243.78125 C 110.367188 243.585938 110.433594 243.417969 110.570312 243.28125 C 110.703125 243.136719 110.875 243.0625 111.085938 243.0625 Z M 111.085938 243.0625 "/><path style=" stroke:none;fill-rule:nonzero;fill:#000000;fill-opacity:1;" d="M 131.964844 243.46875 C 132.160156 243.574219 132.277344 243.734375 132.308594 243.953125 C 132.347656 244.171875 132.296875 244.371094 132.152344 244.546875 C 132.046875 244.695312 131.910156 244.777344 131.746094 244.796875 C 131.589844 244.808594 131.425781 244.777344 131.261719 244.703125 C 131.074219 244.609375 130.875 244.542969 130.667969 244.5 C 130.457031 244.449219 130.238281 244.421875 130.011719 244.421875 C 129.582031 244.421875 129.203125 244.492188 128.871094 244.625 C 128.535156 244.761719 128.25 244.953125 128.011719 245.203125 C 127.769531 245.453125 127.589844 245.75 127.464844 246.09375 C 127.347656 246.429688 127.292969 246.796875 127.292969 247.203125 C 127.292969 247.683594 127.359375 248.101562 127.496094 248.453125 C 127.628906 248.808594 127.816406 249.105469 128.058594 249.34375 C 128.308594 249.585938 128.597656 249.761719 128.933594 249.875 C 129.265625 249.992188 129.625 250.046875 130.011719 250.046875 C 130.21875 250.046875 130.425781 250.027344 130.636719 249.984375 C 130.855469 249.945312 131.0625 249.871094 131.261719 249.765625 C 131.425781 249.695312 131.589844 249.667969 131.746094 249.6875 C 131.910156 249.710938 132.050781 249.792969 132.167969 249.9375 C 132.324219 250.136719 132.375 250.339844 132.324219 250.546875 C 132.28125 250.757812 132.160156 250.90625 131.964844 251 C 131.765625 251.105469 131.558594 251.195312 131.339844 251.265625 C 131.121094 251.328125 130.902344 251.375 130.683594 251.40625 C 130.464844 251.445312 130.238281 251.46875 130.011719 251.46875 C 129.4375 251.46875 128.894531 251.378906 128.386719 251.203125 C 127.886719 251.015625 127.433594 250.746094 127.027344 250.390625 C 126.628906 250.039062 126.316406 249.59375 126.089844 249.0625 C 125.859375 248.523438 125.746094 247.902344 125.746094 247.203125 C 125.746094 246.601562 125.847656 246.042969 126.058594 245.53125 C 126.265625 245.011719 126.5625 244.5625 126.949219 244.1875 C 127.332031 243.8125 127.785156 243.523438 128.308594 243.3125 C 128.828125 243.105469 129.394531 243 130.011719 243 C 130.355469 243 130.691406 243.042969 131.027344 243.125 C 131.359375 243.199219 131.671875 243.3125 131.964844 243.46875 Z M 131.964844 243.46875 "/><path style=" stroke:none;fill-rule:nonzero;fill:#000000;fill-opacity:1;" d="M 144.050781 247.203125 C 144.050781 247.796875 143.949219 248.351562 143.753906 248.859375 C 143.554688 249.371094 143.277344 249.824219 142.925781 250.21875 C 142.570312 250.605469 142.144531 250.914062 141.644531 251.140625 C 141.152344 251.359375 140.617188 251.46875 140.035156 251.46875 C 139.449219 251.46875 138.914062 251.359375 138.425781 251.140625 C 137.933594 250.914062 137.507812 250.605469 137.144531 250.21875 C 136.789062 249.824219 136.511719 249.371094 136.316406 248.859375 C 136.117188 248.351562 136.019531 247.796875 136.019531 247.203125 C 136.019531 246.609375 136.117188 246.058594 136.316406 245.546875 C 136.511719 245.039062 136.789062 244.589844 137.144531 244.203125 C 137.507812 243.808594 137.933594 243.5 138.425781 243.28125 C 138.914062 243.0625 139.449219 242.953125 140.035156 242.953125 C 140.617188 242.953125 141.152344 243.0625 141.644531 243.28125 C 142.144531 243.5 142.570312 243.808594 142.925781 244.203125 C 143.277344 244.589844 143.554688 245.039062 143.753906 245.546875 C 143.949219 246.058594 144.050781 246.609375 144.050781 247.203125 Z M 142.519531 247.203125 C 142.519531 246.671875 142.410156 246.195312 142.191406 245.765625 C 141.980469 245.339844 141.691406 245 141.316406 244.75 C 140.949219 244.492188 140.523438 244.359375 140.035156 244.359375 C 139.542969 244.359375 139.113281 244.492188 138.738281 244.75 C 138.371094 245 138.085938 245.339844 137.878906 245.765625 C 137.667969 246.195312 137.566406 246.671875 137.566406 247.203125 C 137.566406 247.734375 137.667969 248.214844 137.878906 248.640625 C 138.085938 249.070312 138.371094 249.414062 138.738281 249.671875 C 139.113281 249.921875 139.542969 250.046875 140.035156 250.046875 C 140.523438 250.046875 140.949219 249.921875 141.316406 249.671875 C 141.691406 249.414062 141.980469 249.070312 142.191406 248.640625 C 142.410156 248.214844 142.519531 247.734375 142.519531 247.203125 Z M 142.519531 247.203125 "/><path style=" stroke:none;fill-rule:nonzero;fill:#000000;fill-opacity:1;" d="M 149.007812 243.046875 C 149.121094 243.046875 149.242188 243.078125 149.367188 243.140625 C 149.492188 243.203125 149.585938 243.28125 149.648438 243.375 L 152.523438 247.796875 L 151.929688 247.765625 L 154.867188 243.375 C 155.023438 243.15625 155.214844 243.046875 155.445312 243.046875 C 155.632812 243.046875 155.796875 243.117188 155.945312 243.25 C 156.101562 243.386719 156.179688 243.5625 156.179688 243.78125 L 156.179688 250.625 C 156.179688 250.835938 156.109375 251.007812 155.976562 251.140625 C 155.839844 251.277344 155.664062 251.34375 155.445312 251.34375 C 155.226562 251.34375 155.046875 251.277344 154.914062 251.140625 C 154.777344 251.007812 154.710938 250.835938 154.710938 250.625 L 154.710938 245.046875 L 155.164062 245.15625 L 152.757812 248.84375 C 152.683594 248.929688 152.589844 249 152.476562 249.0625 C 152.371094 249.125 152.265625 249.152344 152.164062 249.140625 C 152.058594 249.152344 151.953125 249.125 151.851562 249.0625 C 151.746094 249 151.65625 248.929688 151.585938 248.84375 L 149.320312 245.265625 L 149.632812 244.640625 L 149.632812 250.625 C 149.632812 250.835938 149.570312 251.007812 149.445312 251.140625 C 149.320312 251.277344 149.152344 251.34375 148.945312 251.34375 C 148.746094 251.34375 148.585938 251.277344 148.460938 251.140625 C 148.335938 251.007812 148.273438 250.835938 148.273438 250.625 L 148.273438 243.78125 C 148.273438 243.585938 148.34375 243.414062 148.492188 243.265625 C 148.636719 243.121094 148.808594 243.046875 149.007812 243.046875 Z M 149.007812 243.046875 "/><path style=" stroke:none;fill-rule:nonzero;fill:#000000;fill-opacity:1;" d="M 164.242188 243.0625 C 164.648438 243.0625 165.027344 243.183594 165.382812 243.421875 C 165.746094 243.664062 166.039062 243.984375 166.257812 244.390625 C 166.476562 244.789062 166.585938 245.230469 166.585938 245.71875 C 166.585938 246.210938 166.476562 246.65625 166.257812 247.0625 C 166.039062 247.46875 165.746094 247.792969 165.382812 248.03125 C 165.027344 248.273438 164.648438 248.390625 164.242188 248.390625 L 162.054688 248.390625 L 162.179688 248.171875 L 162.179688 250.625 C 162.179688 250.835938 162.117188 251.007812 161.992188 251.140625 C 161.867188 251.277344 161.699219 251.34375 161.492188 251.34375 C 161.292969 251.34375 161.132812 251.277344 161.007812 251.140625 C 160.882812 251.007812 160.820312 250.835938 160.820312 250.625 L 160.820312 243.78125 C 160.820312 243.585938 160.886719 243.417969 161.023438 243.28125 C 161.15625 243.136719 161.328125 243.0625 161.539062 243.0625 Z M 164.242188 247.03125 C 164.386719 247.03125 164.527344 246.96875 164.664062 246.84375 C 164.808594 246.71875 164.929688 246.558594 165.023438 246.359375 C 165.117188 246.164062 165.164062 245.949219 165.164062 245.71875 C 165.164062 245.492188 165.117188 245.28125 165.023438 245.09375 C 164.929688 244.898438 164.808594 244.734375 164.664062 244.609375 C 164.527344 244.484375 164.386719 244.421875 164.242188 244.421875 L 162.039062 244.421875 L 162.179688 244.21875 L 162.179688 247.234375 L 162.054688 247.03125 Z M 164.242188 247.03125 "/><path style=" stroke:none;fill-rule:nonzero;fill:#000000;fill-opacity:1;" d="M 175.371094 249.953125 C 175.578125 249.953125 175.75 250.023438 175.886719 250.15625 C 176.019531 250.28125 176.089844 250.449219 176.089844 250.65625 C 176.089844 250.855469 176.019531 251.023438 175.886719 251.15625 C 175.75 251.28125 175.578125 251.34375 175.371094 251.34375 L 171.527344 251.34375 C 171.316406 251.34375 171.144531 251.277344 171.011719 251.140625 C 170.875 251.007812 170.808594 250.835938 170.808594 250.625 L 170.808594 243.78125 C 170.808594 243.585938 170.875 243.417969 171.011719 243.28125 C 171.15625 243.136719 171.339844 243.0625 171.558594 243.0625 C 171.746094 243.0625 171.910156 243.136719 172.058594 243.28125 C 172.203125 243.417969 172.277344 243.585938 172.277344 243.78125 L 172.277344 250.15625 L 172.027344 249.953125 Z M 175.371094 249.953125 "/><path style=" stroke:none;fill-rule:nonzero;fill:#000000;fill-opacity:1;" d="M 181.035156 243.0625 L 185.003906 243.0625 C 185.199219 243.0625 185.367188 243.132812 185.503906 243.265625 C 185.648438 243.390625 185.722656 243.558594 185.722656 243.765625 C 185.722656 243.964844 185.648438 244.125 185.503906 244.25 C 185.367188 244.367188 185.199219 244.421875 185.003906 244.421875 L 181.691406 244.421875 L 181.785156 244.21875 L 181.785156 246.53125 L 181.691406 246.4375 L 184.457031 246.4375 C 184.664062 246.4375 184.835938 246.507812 184.972656 246.640625 C 185.117188 246.765625 185.191406 246.933594 185.191406 247.140625 C 185.191406 247.328125 185.117188 247.484375 184.972656 247.609375 C 184.835938 247.734375 184.664062 247.796875 184.457031 247.796875 L 181.738281 247.796875 L 181.785156 247.703125 L 181.785156 250.09375 L 181.691406 249.984375 L 185.003906 249.984375 C 185.199219 249.984375 185.367188 250.054688 185.503906 250.1875 C 185.648438 250.324219 185.722656 250.484375 185.722656 250.671875 C 185.722656 250.871094 185.648438 251.03125 185.503906 251.15625 C 185.367188 251.28125 185.199219 251.34375 185.003906 251.34375 L 181.035156 251.34375 C 180.824219 251.34375 180.652344 251.277344 180.519531 251.140625 C 180.382812 251.007812 180.316406 250.835938 180.316406 250.625 L 180.316406 243.78125 C 180.316406 243.585938 180.382812 243.417969 180.519531 243.28125 C 180.652344 243.136719 180.824219 243.0625 181.035156 243.0625 Z M 181.035156 243.0625 "/><path style=" stroke:none;fill-rule:nonzero;fill:#000000;fill-opacity:1;" d="M 192.738281 251.34375 C 192.519531 251.34375 192.335938 251.277344 192.191406 251.140625 C 192.054688 251.007812 191.988281 250.835938 191.988281 250.625 L 191.988281 243.765625 L 193.519531 243.765625 L 193.519531 250.625 C 193.519531 250.835938 193.445312 251.007812 193.300781 251.140625 C 193.152344 251.277344 192.964844 251.34375 192.738281 251.34375 Z M 190.128906 244.421875 C 189.917969 244.421875 189.746094 244.359375 189.613281 244.234375 C 189.476562 244.109375 189.410156 243.945312 189.410156 243.734375 C 189.410156 243.539062 189.476562 243.375 189.613281 243.25 C 189.746094 243.125 189.917969 243.0625 190.128906 243.0625 L 195.378906 243.0625 C 195.585938 243.0625 195.757812 243.125 195.894531 243.25 C 196.027344 243.375 196.097656 243.542969 196.097656 243.75 C 196.097656 243.960938 196.027344 244.125 195.894531 244.25 C 195.757812 244.367188 195.585938 244.421875 195.378906 244.421875 Z M 190.128906 244.421875 "/><path style=" stroke:none;fill-rule:nonzero;fill:#000000;fill-opacity:1;" d="M 203.234375 244.921875 L 200.6875 250.9375 C 200.632812 251.085938 200.550781 251.199219 200.4375 251.28125 C 200.320312 251.363281 200.195312 251.40625 200.0625 251.40625 C 199.84375 251.40625 199.679688 251.347656 199.578125 251.234375 C 199.484375 251.109375 199.4375 250.960938 199.4375 250.78125 C 199.4375 250.71875 199.445312 250.648438 199.46875 250.5625 L 202.40625 243.484375 C 202.46875 243.328125 202.5625 243.210938 202.6875 243.125 C 202.820312 243.042969 202.96875 243.007812 203.125 243.015625 C 203.257812 243.015625 203.390625 243.058594 203.515625 243.140625 C 203.640625 243.226562 203.726562 243.339844 203.78125 243.484375 L 206.6875 250.421875 C 206.726562 250.527344 206.75 250.621094 206.75 250.703125 C 206.75 250.921875 206.679688 251.09375 206.546875 251.21875 C 206.410156 251.34375 206.257812 251.40625 206.09375 251.40625 C 205.945312 251.40625 205.816406 251.363281 205.703125 251.28125 C 205.585938 251.1875 205.5 251.070312 205.4375 250.921875 L 202.890625 244.984375 Z M 201.046875 249.484375 L 201.703125 248.125 L 204.890625 248.125 L 205.125 249.484375 Z M 201.046875 249.484375 "/><path style=" stroke:none;fill-rule:nonzero;fill:#000000;fill-opacity:1;" d="M 220.214844 243.0625 C 220.621094 243.0625 221 243.183594 221.355469 243.421875 C 221.71875 243.664062 222.011719 243.984375 222.230469 244.390625 C 222.449219 244.789062 222.558594 245.230469 222.558594 245.71875 C 222.558594 246.210938 222.449219 246.65625 222.230469 247.0625 C 222.011719 247.46875 221.71875 247.792969 221.355469 248.03125 C 221 248.273438 220.621094 248.390625 220.214844 248.390625 L 218.027344 248.390625 L 218.152344 248.171875 L 218.152344 250.625 C 218.152344 250.835938 218.089844 251.007812 217.964844 251.140625 C 217.839844 251.277344 217.671875 251.34375 217.464844 251.34375 C 217.265625 251.34375 217.105469 251.277344 216.980469 251.140625 C 216.855469 251.007812 216.792969 250.835938 216.792969 250.625 L 216.792969 243.78125 C 216.792969 243.585938 216.859375 243.417969 216.996094 243.28125 C 217.128906 243.136719 217.300781 243.0625 217.511719 243.0625 Z M 220.214844 247.03125 C 220.359375 247.03125 220.5 246.96875 220.636719 246.84375 C 220.78125 246.71875 220.902344 246.558594 220.996094 246.359375 C 221.089844 246.164062 221.136719 245.949219 221.136719 245.71875 C 221.136719 245.492188 221.089844 245.28125 220.996094 245.09375 C 220.902344 244.898438 220.78125 244.734375 220.636719 244.609375 C 220.5 244.484375 220.359375 244.421875 220.214844 244.421875 L 218.011719 244.421875 L 218.152344 244.21875 L 218.152344 247.234375 L 218.027344 247.03125 Z M 220.214844 247.03125 "/><path style=" stroke:none;fill-rule:nonzero;fill:#000000;fill-opacity:1;" d="M 227.5 243.0625 L 231.46875 243.0625 C 231.664062 243.0625 231.832031 243.132812 231.96875 243.265625 C 232.113281 243.390625 232.1875 243.558594 232.1875 243.765625 C 232.1875 243.964844 232.113281 244.125 231.96875 244.25 C 231.832031 244.367188 231.664062 244.421875 231.46875 244.421875 L 228.15625 244.421875 L 228.25 244.21875 L 228.25 246.53125 L 228.15625 246.4375 L 230.921875 246.4375 C 231.128906 246.4375 231.300781 246.507812 231.4375 246.640625 C 231.582031 246.765625 231.65625 246.933594 231.65625 247.140625 C 231.65625 247.328125 231.582031 247.484375 231.4375 247.609375 C 231.300781 247.734375 231.128906 247.796875 230.921875 247.796875 L 228.203125 247.796875 L 228.25 247.703125 L 228.25 250.09375 L 228.15625 249.984375 L 231.46875 249.984375 C 231.664062 249.984375 231.832031 250.054688 231.96875 250.1875 C 232.113281 250.324219 232.1875 250.484375 232.1875 250.671875 C 232.1875 250.871094 232.113281 251.03125 231.96875 251.15625 C 231.832031 251.28125 231.664062 251.34375 231.46875 251.34375 L 227.5 251.34375 C 227.289062 251.34375 227.117188 251.277344 226.984375 251.140625 C 226.847656 251.007812 226.78125 250.835938 226.78125 250.625 L 226.78125 243.78125 C 226.78125 243.585938 226.847656 243.417969 226.984375 243.28125 C 227.117188 243.136719 227.289062 243.0625 227.5 243.0625 Z M 227.5 243.0625 "/><path style=" stroke:none;fill-rule:nonzero;fill:#000000;fill-opacity:1;" d="M 237.25 251.34375 C 237.03125 251.34375 236.832031 251.277344 236.65625 251.140625 C 236.488281 251.007812 236.40625 250.835938 236.40625 250.625 L 236.40625 243.78125 C 236.40625 243.585938 236.472656 243.417969 236.609375 243.28125 C 236.742188 243.136719 236.914062 243.0625 237.125 243.0625 L 240.53125 243.0625 C 240.9375 243.0625 241.316406 243.171875 241.671875 243.390625 C 242.035156 243.609375 242.328125 243.914062 242.546875 244.296875 C 242.773438 244.671875 242.890625 245.109375 242.890625 245.609375 C 242.890625 245.914062 242.828125 246.203125 242.703125 246.484375 C 242.578125 246.765625 242.410156 247.023438 242.203125 247.25 C 241.992188 247.480469 241.757812 247.65625 241.5 247.78125 L 241.515625 247.515625 C 241.734375 247.632812 241.914062 247.773438 242.0625 247.9375 C 242.207031 248.09375 242.320312 248.265625 242.40625 248.453125 C 242.488281 248.640625 242.535156 248.839844 242.546875 249.046875 C 242.578125 249.246094 242.597656 249.421875 242.609375 249.578125 C 242.628906 249.726562 242.65625 249.851562 242.6875 249.953125 C 242.726562 250.058594 242.796875 250.136719 242.890625 250.1875 C 243.066406 250.292969 243.175781 250.445312 243.21875 250.640625 C 243.257812 250.828125 243.210938 250.996094 243.078125 251.140625 C 242.992188 251.246094 242.882812 251.3125 242.75 251.34375 C 242.613281 251.363281 242.476562 251.363281 242.34375 251.34375 C 242.21875 251.3125 242.109375 251.273438 242.015625 251.21875 C 241.878906 251.148438 241.742188 251.03125 241.609375 250.875 C 241.484375 250.71875 241.378906 250.511719 241.296875 250.25 C 241.210938 249.992188 241.171875 249.65625 241.171875 249.25 C 241.171875 249.117188 241.144531 248.992188 241.09375 248.875 C 241.050781 248.761719 240.984375 248.664062 240.890625 248.578125 C 240.804688 248.496094 240.695312 248.433594 240.5625 248.390625 C 240.425781 248.351562 240.269531 248.328125 240.09375 248.328125 L 237.703125 248.328125 L 237.875 248.0625 L 237.875 250.625 C 237.875 250.835938 237.816406 251.007812 237.703125 251.140625 C 237.597656 251.277344 237.445312 251.34375 237.25 251.34375 Z M 237.71875 247.109375 L 240.46875 247.109375 C 240.613281 247.109375 240.753906 247.046875 240.890625 246.921875 C 241.023438 246.789062 241.132812 246.609375 241.21875 246.390625 C 241.300781 246.164062 241.34375 245.914062 241.34375 245.640625 C 241.34375 245.296875 241.25 245.011719 241.0625 244.78125 C 240.882812 244.542969 240.6875 244.421875 240.46875 244.421875 L 237.734375 244.421875 L 237.875 244.046875 L 237.875 247.390625 Z M 237.71875 247.109375 "/><path style=" stroke:none;fill-rule:nonzero;fill:#000000;fill-opacity:1;" d="M 255.03125 250.625 C 255.03125 250.835938 254.957031 251.007812 254.8125 251.140625 C 254.664062 251.277344 254.492188 251.34375 254.296875 251.34375 C 254.078125 251.34375 253.898438 251.277344 253.765625 251.140625 C 253.628906 251.007812 253.5625 250.835938 253.5625 250.625 L 253.5625 243.78125 C 253.5625 243.585938 253.628906 243.417969 253.765625 243.28125 C 253.910156 243.136719 254.09375 243.0625 254.3125 243.0625 C 254.5 243.0625 254.664062 243.136719 254.8125 243.28125 C 254.957031 243.417969 255.03125 243.585938 255.03125 243.78125 Z M 255.03125 250.625 "/><path style=" stroke:none;fill-rule:nonzero;fill:#000000;fill-opacity:1;" d="M 264.242188 249.953125 C 264.449219 249.953125 264.621094 250.023438 264.757812 250.15625 C 264.890625 250.28125 264.960938 250.449219 264.960938 250.65625 C 264.960938 250.855469 264.890625 251.023438 264.757812 251.15625 C 264.621094 251.28125 264.449219 251.34375 264.242188 251.34375 L 260.398438 251.34375 C 260.1875 251.34375 260.015625 251.277344 259.882812 251.140625 C 259.746094 251.007812 259.679688 250.835938 259.679688 250.625 L 259.679688 243.78125 C 259.679688 243.585938 259.746094 243.417969 259.882812 243.28125 C 260.027344 243.136719 260.210938 243.0625 260.429688 243.0625 C 260.617188 243.0625 260.78125 243.136719 260.929688 243.28125 C 261.074219 243.417969 261.148438 243.585938 261.148438 243.78125 L 261.148438 250.15625 L 260.898438 249.953125 Z M 264.242188 249.953125 "/><path style=" stroke:none;fill-rule:nonzero;fill:#000000;fill-opacity:1;" d="M 278.15625 251.34375 C 277.9375 251.34375 277.753906 251.277344 277.609375 251.140625 C 277.472656 251.007812 277.40625 250.835938 277.40625 250.625 L 277.40625 243.765625 L 278.9375 243.765625 L 278.9375 250.625 C 278.9375 250.835938 278.863281 251.007812 278.71875 251.140625 C 278.570312 251.277344 278.382812 251.34375 278.15625 251.34375 Z M 275.546875 244.421875 C 275.335938 244.421875 275.164062 244.359375 275.03125 244.234375 C 274.894531 244.109375 274.828125 243.945312 274.828125 243.734375 C 274.828125 243.539062 274.894531 243.375 275.03125 243.25 C 275.164062 243.125 275.335938 243.0625 275.546875 243.0625 L 280.796875 243.0625 C 281.003906 243.0625 281.175781 243.125 281.3125 243.25 C 281.445312 243.375 281.515625 243.542969 281.515625 243.75 C 281.515625 243.960938 281.445312 244.125 281.3125 244.25 C 281.175781 244.367188 281.003906 244.421875 280.796875 244.421875 Z M 275.546875 244.421875 "/><path style=" stroke:none;fill-rule:nonzero;fill:#000000;fill-opacity:1;" d="M 291.496094 243.046875 C 291.703125 243.046875 291.871094 243.121094 291.996094 243.265625 C 292.121094 243.402344 292.183594 243.574219 292.183594 243.78125 L 292.183594 248.0625 C 292.183594 248.710938 292.042969 249.289062 291.761719 249.796875 C 291.480469 250.296875 291.09375 250.695312 290.605469 250.984375 C 290.113281 251.265625 289.546875 251.40625 288.902344 251.40625 C 288.253906 251.40625 287.6875 251.265625 287.199219 250.984375 C 286.707031 250.695312 286.324219 250.296875 286.042969 249.796875 C 285.761719 249.289062 285.621094 248.710938 285.621094 248.0625 L 285.621094 243.78125 C 285.621094 243.574219 285.6875 243.402344 285.824219 243.265625 C 285.96875 243.121094 286.152344 243.046875 286.371094 243.046875 C 286.558594 243.046875 286.722656 243.121094 286.871094 243.265625 C 287.015625 243.402344 287.089844 243.574219 287.089844 243.78125 L 287.089844 248.0625 C 287.089844 248.449219 287.171875 248.789062 287.339844 249.078125 C 287.503906 249.371094 287.730469 249.59375 288.011719 249.75 C 288.292969 249.90625 288.589844 249.984375 288.902344 249.984375 C 289.246094 249.984375 289.5625 249.90625 289.855469 249.75 C 290.144531 249.59375 290.378906 249.371094 290.558594 249.078125 C 290.746094 248.789062 290.839844 248.449219 290.839844 248.0625 L 290.839844 243.78125 C 290.839844 243.574219 290.894531 243.402344 291.011719 243.265625 C 291.125 243.121094 291.285156 243.046875 291.496094 243.046875 Z M 291.496094 243.046875 "/><path style=" stroke:none;fill-rule:nonzero;fill:#000000;fill-opacity:1;" d="M 304.425781 247.203125 C 304.425781 247.796875 304.324219 248.351562 304.128906 248.859375 C 303.929688 249.371094 303.652344 249.824219 303.300781 250.21875 C 302.945312 250.605469 302.519531 250.914062 302.019531 251.140625 C 301.527344 251.359375 300.992188 251.46875 300.410156 251.46875 C 299.824219 251.46875 299.289062 251.359375 298.800781 251.140625 C 298.308594 250.914062 297.882812 250.605469 297.519531 250.21875 C 297.164062 249.824219 296.886719 249.371094 296.691406 248.859375 C 296.492188 248.351562 296.394531 247.796875 296.394531 247.203125 C 296.394531 246.609375 296.492188 246.058594 296.691406 245.546875 C 296.886719 245.039062 297.164062 244.589844 297.519531 244.203125 C 297.882812 243.808594 298.308594 243.5 298.800781 243.28125 C 299.289062 243.0625 299.824219 242.953125 300.410156 242.953125 C 300.992188 242.953125 301.527344 243.0625 302.019531 243.28125 C 302.519531 243.5 302.945312 243.808594 303.300781 244.203125 C 303.652344 244.589844 303.929688 245.039062 304.128906 245.546875 C 304.324219 246.058594 304.425781 246.609375 304.425781 247.203125 Z M 302.894531 247.203125 C 302.894531 246.671875 302.785156 246.195312 302.566406 245.765625 C 302.355469 245.339844 302.066406 245 301.691406 244.75 C 301.324219 244.492188 300.898438 244.359375 300.410156 244.359375 C 299.917969 244.359375 299.488281 244.492188 299.113281 244.75 C 298.746094 245 298.460938 245.339844 298.253906 245.765625 C 298.042969 246.195312 297.941406 246.671875 297.941406 247.203125 C 297.941406 247.734375 298.042969 248.214844 298.253906 248.640625 C 298.460938 249.070312 298.746094 249.414062 299.113281 249.671875 C 299.488281 249.921875 299.917969 250.046875 300.410156 250.046875 C 300.898438 250.046875 301.324219 249.921875 301.691406 249.671875 C 302.066406 249.414062 302.355469 249.070312 302.566406 248.640625 C 302.785156 248.214844 302.894531 247.734375 302.894531 247.203125 Z M 302.894531 247.203125 "/><path style=" stroke:none;fill-rule:nonzero;fill:#000000;fill-opacity:1;" d="M 315.542969 243.0625 L 319.511719 243.0625 C 319.707031 243.0625 319.875 243.132812 320.011719 243.265625 C 320.15625 243.390625 320.230469 243.558594 320.230469 243.765625 C 320.230469 243.964844 320.15625 244.125 320.011719 244.25 C 319.875 244.367188 319.707031 244.421875 319.511719 244.421875 L 316.199219 244.421875 L 316.292969 244.21875 L 316.292969 246.53125 L 316.199219 246.4375 L 318.964844 246.4375 C 319.171875 246.4375 319.34375 246.507812 319.480469 246.640625 C 319.625 246.765625 319.699219 246.933594 319.699219 247.140625 C 319.699219 247.328125 319.625 247.484375 319.480469 247.609375 C 319.34375 247.734375 319.171875 247.796875 318.964844 247.796875 L 316.246094 247.796875 L 316.292969 247.703125 L 316.292969 250.09375 L 316.199219 249.984375 L 319.511719 249.984375 C 319.707031 249.984375 319.875 250.054688 320.011719 250.1875 C 320.15625 250.324219 320.230469 250.484375 320.230469 250.671875 C 320.230469 250.871094 320.15625 251.03125 320.011719 251.15625 C 319.875 251.28125 319.707031 251.34375 319.511719 251.34375 L 315.542969 251.34375 C 315.332031 251.34375 315.160156 251.277344 315.027344 251.140625 C 314.890625 251.007812 314.824219 250.835938 314.824219 250.625 L 314.824219 243.78125 C 314.824219 243.585938 314.890625 243.417969 315.027344 243.28125 C 315.160156 243.136719 315.332031 243.0625 315.542969 243.0625 Z M 315.542969 243.0625 "/><path style=" stroke:none;fill-rule:nonzero;fill:#000000;fill-opacity:1;" d="M 330.496094 243.046875 C 330.691406 243.046875 330.863281 243.117188 331.011719 243.25 C 331.15625 243.375 331.230469 243.53125 331.230469 243.71875 C 331.230469 243.824219 331.203125 243.933594 331.152344 244.046875 L 328.230469 250.875 C 328.15625 251.042969 328.050781 251.164062 327.917969 251.234375 C 327.792969 251.308594 327.660156 251.34375 327.527344 251.34375 C 327.402344 251.335938 327.28125 251.292969 327.167969 251.21875 C 327.050781 251.148438 326.957031 251.039062 326.886719 250.890625 L 323.964844 244.03125 C 323.941406 243.992188 323.925781 243.945312 323.917969 243.890625 C 323.917969 243.839844 323.917969 243.789062 323.917969 243.734375 C 323.917969 243.507812 324 243.335938 324.167969 243.21875 C 324.332031 243.09375 324.488281 243.03125 324.636719 243.03125 C 324.9375 243.03125 325.15625 243.183594 325.292969 243.484375 L 327.871094 249.578125 L 327.464844 249.59375 L 329.839844 243.484375 C 329.972656 243.195312 330.191406 243.046875 330.496094 243.046875 Z M 330.496094 243.046875 "/><path style=" stroke:none;fill-rule:nonzero;fill:#000000;fill-opacity:1;" d="M 336.046875 243.0625 L 340.015625 243.0625 C 340.210938 243.0625 340.378906 243.132812 340.515625 243.265625 C 340.660156 243.390625 340.734375 243.558594 340.734375 243.765625 C 340.734375 243.964844 340.660156 244.125 340.515625 244.25 C 340.378906 244.367188 340.210938 244.421875 340.015625 244.421875 L 336.703125 244.421875 L 336.796875 244.21875 L 336.796875 246.53125 L 336.703125 246.4375 L 339.46875 246.4375 C 339.675781 246.4375 339.847656 246.507812 339.984375 246.640625 C 340.128906 246.765625 340.203125 246.933594 340.203125 247.140625 C 340.203125 247.328125 340.128906 247.484375 339.984375 247.609375 C 339.847656 247.734375 339.675781 247.796875 339.46875 247.796875 L 336.75 247.796875 L 336.796875 247.703125 L 336.796875 250.09375 L 336.703125 249.984375 L 340.015625 249.984375 C 340.210938 249.984375 340.378906 250.054688 340.515625 250.1875 C 340.660156 250.324219 340.734375 250.484375 340.734375 250.671875 C 340.734375 250.871094 340.660156 251.03125 340.515625 251.15625 C 340.378906 251.28125 340.210938 251.34375 340.015625 251.34375 L 336.046875 251.34375 C 335.835938 251.34375 335.664062 251.277344 335.53125 251.140625 C 335.394531 251.007812 335.328125 250.835938 335.328125 250.625 L 335.328125 243.78125 C 335.328125 243.585938 335.394531 243.417969 335.53125 243.28125 C 335.664062 243.136719 335.835938 243.0625 336.046875 243.0625 Z M 336.046875 243.0625 "/><path style=" stroke:none;fill-rule:nonzero;fill:#000000;fill-opacity:1;" d="M 351.230469 243.0625 C 351.417969 243.0625 351.566406 243.125 351.683594 243.25 C 351.808594 243.375 351.871094 243.53125 351.871094 243.71875 L 351.871094 250.625 C 351.871094 250.835938 351.796875 251.007812 351.652344 251.140625 C 351.515625 251.277344 351.34375 251.34375 351.136719 251.34375 C 351.042969 251.34375 350.9375 251.328125 350.824219 251.296875 C 350.71875 251.257812 350.640625 251.203125 350.589844 251.140625 L 345.933594 245.234375 L 346.246094 245.046875 L 346.246094 250.6875 C 346.246094 250.875 346.183594 251.03125 346.058594 251.15625 C 345.941406 251.28125 345.785156 251.34375 345.589844 251.34375 C 345.390625 251.34375 345.234375 251.28125 345.121094 251.15625 C 345.003906 251.03125 344.949219 250.875 344.949219 250.6875 L 344.949219 243.78125 C 344.949219 243.585938 345.015625 243.417969 345.152344 243.28125 C 345.285156 243.136719 345.457031 243.0625 345.667969 243.0625 C 345.78125 243.0625 345.894531 243.085938 346.011719 243.125 C 346.125 243.167969 346.214844 243.234375 346.277344 243.328125 L 350.777344 249.078125 L 350.574219 249.21875 L 350.574219 243.71875 C 350.574219 243.53125 350.628906 243.375 350.746094 243.25 C 350.871094 243.125 351.03125 243.0625 351.230469 243.0625 Z M 351.230469 243.0625 "/><path style=" stroke:none;fill-rule:nonzero;fill:#000000;fill-opacity:1;" d="M 359.296875 251.34375 C 359.078125 251.34375 358.894531 251.277344 358.75 251.140625 C 358.613281 251.007812 358.546875 250.835938 358.546875 250.625 L 358.546875 243.765625 L 360.078125 243.765625 L 360.078125 250.625 C 360.078125 250.835938 360.003906 251.007812 359.859375 251.140625 C 359.710938 251.277344 359.523438 251.34375 359.296875 251.34375 Z M 356.6875 244.421875 C 356.476562 244.421875 356.304688 244.359375 356.171875 244.234375 C 356.035156 244.109375 355.96875 243.945312 355.96875 243.734375 C 355.96875 243.539062 356.035156 243.375 356.171875 243.25 C 356.304688 243.125 356.476562 243.0625 356.6875 243.0625 L 361.9375 243.0625 C 362.144531 243.0625 362.316406 243.125 362.453125 243.25 C 362.585938 243.375 362.65625 243.542969 362.65625 243.75 C 362.65625 243.960938 362.585938 244.125 362.453125 244.25 C 362.316406 244.367188 362.144531 244.421875 361.9375 244.421875 Z M 356.6875 244.421875 "/><path style=" stroke:none;fill-rule:nonzero;fill:#000000;fill-opacity:1;" d="M 374.375 247.203125 C 374.375 247.796875 374.273438 248.351562 374.078125 248.859375 C 373.878906 249.371094 373.601562 249.824219 373.25 250.21875 C 372.894531 250.605469 372.46875 250.914062 371.96875 251.140625 C 371.476562 251.359375 370.941406 251.46875 370.359375 251.46875 C 369.773438 251.46875 369.238281 251.359375 368.75 251.140625 C 368.257812 250.914062 367.832031 250.605469 367.46875 250.21875 C 367.113281 249.824219 366.835938 249.371094 366.640625 248.859375 C 366.441406 248.351562 366.34375 247.796875 366.34375 247.203125 C 366.34375 246.609375 366.441406 246.058594 366.640625 245.546875 C 366.835938 245.039062 367.113281 244.589844 367.46875 244.203125 C 367.832031 243.808594 368.257812 243.5 368.75 243.28125 C 369.238281 243.0625 369.773438 242.953125 370.359375 242.953125 C 370.941406 242.953125 371.476562 243.0625 371.96875 243.28125 C 372.46875 243.5 372.894531 243.808594 373.25 244.203125 C 373.601562 244.589844 373.878906 245.039062 374.078125 245.546875 C 374.273438 246.058594 374.375 246.609375 374.375 247.203125 Z M 372.84375 247.203125 C 372.84375 246.671875 372.734375 246.195312 372.515625 245.765625 C 372.304688 245.339844 372.015625 245 371.640625 244.75 C 371.273438 244.492188 370.847656 244.359375 370.359375 244.359375 C 369.867188 244.359375 369.4375 244.492188 369.0625 244.75 C 368.695312 245 368.410156 245.339844 368.203125 245.765625 C 367.992188 246.195312 367.890625 246.671875 367.890625 247.203125 C 367.890625 247.734375 367.992188 248.214844 368.203125 248.640625 C 368.410156 249.070312 368.695312 249.414062 369.0625 249.671875 C 369.4375 249.921875 369.867188 250.046875 370.359375 250.046875 C 370.847656 250.046875 371.273438 249.921875 371.640625 249.671875 C 372.015625 249.414062 372.304688 249.070312 372.515625 248.640625 C 372.734375 248.214844 372.84375 247.734375 372.84375 247.203125 Z M 372.84375 247.203125 "/></g></svg>